<svg width="123" height="44" viewBox="0 0 123 44" fill="none" xmlns="http://www.w3.org/2000/svg">
<g filter="url(#filter0_d_1213_1437)">
<rect x="1" y="1" width="113" height="34" rx="17" fill="#0B3B73"/>
</g>
<path d="M31.7102 15.09V17.078H34.9162V18.926H31.7102V21.082H35.3362V23H29.3162V13.172H35.3362V15.09H31.7102ZM41.6505 15.104C42.5651 15.104 43.2931 15.4027 43.8345 16C44.3851 16.588 44.6605 17.4 44.6605 18.436V23H42.2805V18.758C42.2805 18.2353 42.1451 17.8293 41.8745 17.54C41.6038 17.2507 41.2398 17.106 40.7825 17.106C40.3251 17.106 39.9611 17.2507 39.6905 17.54C39.4198 17.8293 39.2845 18.2353 39.2845 18.758V23H36.8905V15.188H39.2845V16.224C39.5271 15.8787 39.8538 15.608 40.2645 15.412C40.6751 15.2067 41.1371 15.104 41.6505 15.104ZM49.8381 20.76L51.5321 15.188H54.0801L51.3081 23H48.3541L45.5821 15.188H48.1441L49.8381 20.76ZM58.6437 23.112C57.8784 23.112 57.1877 22.9487 56.5717 22.622C55.9651 22.2953 55.4844 21.8287 55.1297 21.222C54.7844 20.6153 54.6117 19.906 54.6117 19.094C54.6117 18.2913 54.7891 17.5867 55.1437 16.98C55.4984 16.364 55.9837 15.8927 56.5997 15.566C57.2157 15.2393 57.9064 15.076 58.6717 15.076C59.4371 15.076 60.1277 15.2393 60.7437 15.566C61.3597 15.8927 61.8451 16.364 62.1997 16.98C62.5544 17.5867 62.7317 18.2913 62.7317 19.094C62.7317 19.8967 62.5497 20.606 62.1857 21.222C61.8311 21.8287 61.3411 22.2953 60.7157 22.622C60.0997 22.9487 59.4091 23.112 58.6437 23.112ZM58.6437 21.04C59.1011 21.04 59.4884 20.872 59.8057 20.536C60.1324 20.2 60.2957 19.7193 60.2957 19.094C60.2957 18.4687 60.1371 17.988 59.8197 17.652C59.5117 17.316 59.1291 17.148 58.6717 17.148C58.2051 17.148 57.8177 17.316 57.5097 17.652C57.2017 17.9787 57.0477 18.4593 57.0477 19.094C57.0477 19.7193 57.1971 20.2 57.4957 20.536C57.8037 20.872 58.1864 21.04 58.6437 21.04ZM71.9818 15.188L67.0818 26.71H64.5058L66.2978 22.734L63.1198 15.188H65.7938L67.5998 20.074L69.3918 15.188H71.9818ZM80.2115 18.968C80.2115 19.192 80.1975 19.4253 80.1695 19.668H74.7515C74.7888 20.1533 74.9428 20.5267 75.2135 20.788C75.4935 21.04 75.8342 21.166 76.2355 21.166C76.8328 21.166 77.2482 20.914 77.4815 20.41H80.0295C79.8988 20.9233 79.6608 21.3853 79.3155 21.796C78.9795 22.2067 78.5548 22.5287 78.0415 22.762C77.5282 22.9953 76.9542 23.112 76.3195 23.112C75.5542 23.112 74.8728 22.9487 74.2755 22.622C73.6782 22.2953 73.2115 21.8287 72.8755 21.222C72.5395 20.6153 72.3715 19.906 72.3715 19.094C72.3715 18.282 72.5348 17.5727 72.8615 16.966C73.1975 16.3593 73.6642 15.8927 74.2615 15.566C74.8588 15.2393 75.5448 15.076 76.3195 15.076C77.0755 15.076 77.7475 15.2347 78.3355 15.552C78.9235 15.8693 79.3808 16.322 79.7075 16.91C80.0435 17.498 80.2115 18.184 80.2115 18.968ZM77.7615 18.338C77.7615 17.9273 77.6215 17.6007 77.3415 17.358C77.0615 17.1153 76.7115 16.994 76.2915 16.994C75.8902 16.994 75.5495 17.1107 75.2695 17.344C74.9988 17.5773 74.8308 17.9087 74.7655 18.338H77.7615ZM83.7144 21.026H87.1024V23H81.0404V21.096L84.2884 17.162H81.0684V15.188H87.0324V17.092L83.7144 21.026Z" fill="#FFD600"/>
<defs>
<filter id="filter0_d_1213_1437" x="0" y="0" width="123" height="44" filterUnits="userSpaceOnUse" color-interpolation-filters="sRGB">
<feFlood flood-opacity="0" result="BackgroundImageFix"/>
<feColorMatrix in="SourceAlpha" type="matrix" values="0 0 0 0 0 0 0 0 0 0 0 0 0 0 0 0 0 0 127 0" result="hardAlpha"/>
<feOffset dx="4" dy="4"/>
<feGaussianBlur stdDeviation="2.5"/>
<feComposite in2="hardAlpha" operator="out"/>
<feColorMatrix type="matrix" values="0 0 0 0 0 0 0 0 0 0 0 0 0 0 0 0 0 0 0.25 0"/>
<feBlend mode="normal" in2="BackgroundImageFix" result="effect1_dropShadow_1213_1437"/>
<feBlend mode="normal" in="SourceGraphic" in2="effect1_dropShadow_1213_1437" result="shape"/>
</filter>
</defs>
</svg>
