<svg width="106" height="39" viewBox="0 0 106 39" fill="none" xmlns="http://www.w3.org/2000/svg">
<path d="M22.0859 12.8672C21.9297 13.2448 21.7799 13.5443 21.6367 13.7656C21.4935 13.987 21.3372 14.1628 21.168 14.293C20.9987 14.4102 20.8034 14.4883 20.582 14.5273C20.3737 14.5664 20.1263 14.5859 19.8398 14.5859C18.6159 14.4818 17.5612 14.4036 16.6758 14.3516C15.8034 14.2995 15.0286 14.2734 14.3516 14.2734C13.6875 14.2734 13.1016 14.2995 12.5938 14.3516C12.099 14.4036 11.6107 14.4948 11.1289 14.625C10.9336 14.9375 10.6406 15.4323 10.25 16.1094C9.85938 16.7865 9.42318 17.5612 8.94141 18.4336C8.47266 19.293 7.99089 20.2109 7.49609 21.1875C7.0013 22.1641 6.54557 23.1016 6.12891 24C5.23047 25.9531 4.42318 27.4115 3.70703 28.375C3.00391 29.3385 2.40495 29.8203 1.91016 29.8203C1.3112 29.8203 0.875 29.7096 0.601562 29.4883C0.341146 29.2799 0.210938 28.9674 0.210938 28.5508C0.210938 28.056 0.386719 27.3659 0.738281 26.4805C1.10286 25.582 1.60417 24.4948 2.24219 23.2188C2.47656 22.75 2.73047 22.2487 3.00391 21.7148C3.29036 21.181 3.57682 20.6471 3.86328 20.1133C4.14974 19.5794 4.42969 19.0586 4.70312 18.5508C4.97656 18.043 5.22396 17.5872 5.44531 17.1836C5.66667 16.7669 5.84896 16.4154 5.99219 16.1289C6.14844 15.8424 6.24609 15.6536 6.28516 15.5625C6.32422 15.4583 6.35026 15.3867 6.36328 15.3477C6.38932 15.3086 6.40234 15.2826 6.40234 15.2695C6.41536 15.2435 6.42188 15.2305 6.42188 15.2305C6.42188 15.2174 6.42839 15.1849 6.44141 15.1328H6.08984C5.59505 15.1328 5.19792 15.0938 4.89844 15.0156C4.59896 14.9375 4.44922 14.7682 4.44922 14.5078C4.44922 14.3646 4.50781 14.1823 4.625 13.9609C4.89844 13.4531 5.20443 13.069 5.54297 12.8086C5.88151 12.5352 6.20703 12.3398 6.51953 12.2227C6.84505 12.1055 7.13802 12.0469 7.39844 12.0469C7.67188 12.0339 7.88021 12.0273 8.02344 12.0273C8.375 11.3112 8.72656 10.5951 9.07812 9.87891C9.42969 9.16276 9.78125 8.44661 10.1328 7.73047C10.7969 6.41536 11.4674 5.3151 12.1445 4.42969C12.8346 3.54427 13.5833 2.83464 14.3906 2.30078C15.1979 1.76693 16.0898 1.38932 17.0664 1.16797C18.043 0.933594 19.1562 0.816406 20.4062 0.816406C21.5521 0.816406 22.4635 0.848958 23.1406 0.914062C23.8307 0.979167 24.3125 1.04427 24.5859 1.10938C25.1068 1.2526 25.4714 1.5 25.6797 1.85156C25.901 2.1901 26.0117 2.56771 26.0117 2.98438C26.0117 3.3099 25.9531 3.63542 25.8359 3.96094C25.7318 4.28646 25.582 4.58594 25.3867 4.85938C25.2044 5.11979 24.9896 5.33464 24.7422 5.50391C24.5078 5.67318 24.2669 5.75781 24.0195 5.75781C23.8763 5.75781 23.7526 5.73177 23.6484 5.67969C23.362 5.54948 23.1016 5.4388 22.8672 5.34766C22.6458 5.24349 22.418 5.16536 22.1836 5.11328C21.9492 5.04818 21.6823 5.0026 21.3828 4.97656C21.0964 4.95052 20.7383 4.9375 20.3086 4.9375C19.8659 4.9375 19.3385 4.95052 18.7266 4.97656C18.1276 4.98958 17.3919 5.01562 16.5195 5.05469C16.168 5.66667 15.8359 6.23958 15.5234 6.77344C15.224 7.29427 14.9245 7.8151 14.625 8.33594C14.3385 8.84375 14.0391 9.36458 13.7266 9.89844C13.4271 10.4193 13.0951 10.9922 12.7305 11.6172C13.2122 11.4479 13.7331 11.2982 14.293 11.168C14.8659 11.0247 15.4453 10.9076 16.0312 10.8164C16.6302 10.7253 17.2292 10.6536 17.8281 10.6016C18.4271 10.5495 19 10.5234 19.5469 10.5234C20.5365 10.5234 21.2461 10.6016 21.6758 10.7578C22.1185 10.9141 22.3398 11.2331 22.3398 11.7148C22.3398 11.819 22.3333 11.9753 22.3203 12.1836C22.3073 12.3789 22.2292 12.6068 22.0859 12.8672ZM22.4766 12.1055C22.4766 11.806 22.5286 11.5 22.6328 11.1875C22.75 10.862 22.9193 10.569 23.1406 10.3086C23.362 10.0482 23.6354 9.83333 23.9609 9.66406C24.2995 9.49479 24.6966 9.41016 25.1523 9.41016C25.9076 9.41016 26.4349 9.5599 26.7344 9.85938C27.0339 10.1458 27.1836 10.5104 27.1836 10.9531C27.1836 11.2005 27.1315 11.474 27.0273 11.7734C26.9362 12.0729 26.793 12.3529 26.5977 12.6133C26.4023 12.8607 26.1484 13.069 25.8359 13.2383C25.5234 13.4076 25.1523 13.4922 24.7227 13.4922C23.9154 13.4922 23.349 13.3685 23.0234 13.1211C22.6979 12.8607 22.5156 12.5221 22.4766 12.1055ZM20.3281 16.5C20.5495 16.1354 20.8034 15.875 21.0898 15.7188C21.3763 15.5625 21.6693 15.4844 21.9688 15.4844C22.4635 15.4844 22.8867 15.6471 23.2383 15.9727C23.6029 16.2852 23.7852 16.6888 23.7852 17.1836C23.7721 17.3008 23.7526 17.418 23.7266 17.5352C23.7135 17.6523 23.6745 17.7695 23.6094 17.8867C23.4271 18.2253 23.2773 18.5117 23.1602 18.7461C23.043 18.9805 22.9323 19.2018 22.8281 19.4102C22.737 19.6055 22.6458 19.8008 22.5547 19.9961C22.4635 20.1914 22.3529 20.4258 22.2227 20.6992C22.0664 21.0247 21.8906 21.3828 21.6953 21.7734C21.5 22.151 21.3112 22.5417 21.1289 22.9453C20.9596 23.349 20.8099 23.7461 20.6797 24.1367C20.5625 24.5273 20.5039 24.8854 20.5039 25.2109C20.5039 25.5625 20.5885 25.7969 20.7578 25.9141C20.9401 26.0182 21.194 26.0703 21.5195 26.0703C21.8841 26.0703 22.2617 25.9922 22.6523 25.8359C23.056 25.6797 23.4596 25.4779 23.8633 25.2305C24.2669 24.9831 24.6641 24.7031 25.0547 24.3906C25.4453 24.0651 25.8099 23.7396 26.1484 23.4141C26.5 23.0885 26.819 22.776 27.1055 22.4766C27.4049 22.1771 27.6523 21.9102 27.8477 21.6758C28.1081 21.4284 28.3685 21.3047 28.6289 21.3047C28.8633 21.3047 29.0521 21.4089 29.1953 21.6172C29.3516 21.8255 29.4297 22.0924 29.4297 22.418C29.4297 22.7174 29.3516 23.0365 29.1953 23.375C29.0521 23.7135 28.8112 24.0326 28.4727 24.332C27.8086 25.0091 27.1315 25.6602 26.4414 26.2852C25.7513 26.8971 25.0417 27.444 24.3125 27.9258C23.5964 28.3945 22.8737 28.7721 22.1445 29.0586C21.4154 29.3451 20.6797 29.4883 19.9375 29.4883C18.8828 29.4883 18.0495 29.2214 17.4375 28.6875C16.8385 28.1406 16.5391 27.2943 16.5391 26.1484C16.5391 25.5495 16.6237 24.9635 16.793 24.3906C16.9622 23.8177 17.1641 23.2643 17.3984 22.7305C17.6328 22.1836 17.8802 21.6628 18.1406 21.168C18.401 20.6602 18.6224 20.1784 18.8047 19.7227C18.8698 19.5534 18.9805 19.293 19.1367 18.9414C19.306 18.5898 19.4818 18.2318 19.6641 17.8672C19.8724 17.4375 20.0938 16.9818 20.3281 16.5ZM30.4258 23.3555C30.2826 23.6549 30.1393 24.0065 29.9961 24.4102C29.8659 24.8008 29.8008 25.1523 29.8008 25.4648C29.8008 25.6602 29.8398 25.8164 29.918 25.9336C29.9961 26.0508 30.1458 26.1094 30.3672 26.1094C30.6406 26.1094 30.9792 26.0312 31.3828 25.875C31.7995 25.7057 32.2422 25.4909 32.7109 25.2305C33.1927 24.957 33.6875 24.651 34.1953 24.3125C34.7161 23.9609 35.2305 23.6029 35.7383 23.2383C36.2461 22.8607 36.7279 22.4896 37.1836 22.125C37.6523 21.7474 38.069 21.4023 38.4336 21.0898C38.5378 20.9987 38.6615 20.9336 38.8047 20.8945C38.9479 20.8555 39.0716 20.8359 39.1758 20.8359C39.4362 20.8359 39.651 20.9271 39.8203 21.1094C39.9896 21.2917 40.0742 21.5326 40.0742 21.832C40.0742 22.1055 39.9831 22.4115 39.8008 22.75C39.6185 23.0885 39.2995 23.4206 38.8438 23.7461C38.0104 24.5143 37.1706 25.2435 36.3242 25.9336C35.4779 26.6237 34.6315 27.2357 33.7852 27.7695C32.9518 28.2904 32.1185 28.707 31.2852 29.0195C30.4648 29.332 29.6641 29.4883 28.8828 29.4883C28.349 29.4883 27.8997 29.4167 27.5352 29.2734C27.1836 29.1302 26.8971 28.9349 26.6758 28.6875C26.4674 28.4401 26.3177 28.1471 26.2266 27.8086C26.1354 27.4701 26.0898 27.112 26.0898 26.7344C26.0898 26.0964 26.181 25.4453 26.3633 24.7812C26.5586 24.1042 26.7865 23.4857 27.0469 22.9258C27.5026 21.9102 27.9648 20.901 28.4336 19.8984C28.9023 18.8958 29.332 17.9779 29.7227 17.1445L35.6406 4.54688C35.875 4.03906 36.1875 3.68099 36.5781 3.47266C36.9818 3.26432 37.3854 3.16016 37.7891 3.16016C38.1927 3.16016 38.5573 3.27083 38.8828 3.49219C39.2214 3.71354 39.3906 4.07161 39.3906 4.56641C39.3906 4.80078 39.332 5.04818 39.2148 5.30859C39.1107 5.56901 38.974 5.84896 38.8047 6.14844C38.4792 6.76042 38.0885 7.50911 37.6328 8.39453C37.1901 9.27995 36.7083 10.2435 36.1875 11.2852C35.6797 12.3268 35.1523 13.4141 34.6055 14.5469C34.0716 15.6667 33.5443 16.7604 33.0234 17.8281C32.5156 18.8958 32.0339 19.9115 31.5781 20.875C31.1354 21.8255 30.7513 22.6523 30.4258 23.3555ZM42.1641 12.1055C42.1641 11.806 42.2161 11.5 42.3203 11.1875C42.4375 10.862 42.6068 10.569 42.8281 10.3086C43.0495 10.0482 43.3229 9.83333 43.6484 9.66406C43.987 9.49479 44.3841 9.41016 44.8398 9.41016C45.5951 9.41016 46.1224 9.5599 46.4219 9.85938C46.7214 10.1458 46.8711 10.5104 46.8711 10.9531C46.8711 11.2005 46.819 11.474 46.7148 11.7734C46.6237 12.0729 46.4805 12.3529 46.2852 12.6133C46.0898 12.8607 45.8359 13.069 45.5234 13.2383C45.2109 13.4076 44.8398 13.4922 44.4102 13.4922C43.6029 13.4922 43.0365 13.3685 42.7109 13.1211C42.3854 12.8607 42.2031 12.5221 42.1641 12.1055ZM40.0156 16.5C40.237 16.1354 40.4909 15.875 40.7773 15.7188C41.0638 15.5625 41.3568 15.4844 41.6562 15.4844C42.151 15.4844 42.5742 15.6471 42.9258 15.9727C43.2904 16.2852 43.4727 16.6888 43.4727 17.1836C43.4596 17.3008 43.4401 17.418 43.4141 17.5352C43.401 17.6523 43.362 17.7695 43.2969 17.8867C43.1146 18.2253 42.9648 18.5117 42.8477 18.7461C42.7305 18.9805 42.6198 19.2018 42.5156 19.4102C42.4245 19.6055 42.3333 19.8008 42.2422 19.9961C42.151 20.1914 42.0404 20.4258 41.9102 20.6992C41.7539 21.0247 41.5781 21.3828 41.3828 21.7734C41.1875 22.151 40.9987 22.5417 40.8164 22.9453C40.6471 23.349 40.4974 23.7461 40.3672 24.1367C40.25 24.5273 40.1914 24.8854 40.1914 25.2109C40.1914 25.5625 40.276 25.7969 40.4453 25.9141C40.6276 26.0182 40.8815 26.0703 41.207 26.0703C41.5716 26.0703 41.9492 25.9922 42.3398 25.8359C42.7435 25.6797 43.1471 25.4779 43.5508 25.2305C43.9544 24.9831 44.3516 24.7031 44.7422 24.3906C45.1328 24.0651 45.4974 23.7396 45.8359 23.4141C46.1875 23.0885 46.5065 22.776 46.793 22.4766C47.0924 22.1771 47.3398 21.9102 47.5352 21.6758C47.7956 21.4284 48.056 21.3047 48.3164 21.3047C48.5508 21.3047 48.7396 21.4089 48.8828 21.6172C49.0391 21.8255 49.1172 22.0924 49.1172 22.418C49.1172 22.7174 49.0391 23.0365 48.8828 23.375C48.7396 23.7135 48.4987 24.0326 48.1602 24.332C47.4961 25.0091 46.819 25.6602 46.1289 26.2852C45.4388 26.8971 44.7292 27.444 44 27.9258C43.2839 28.3945 42.5612 28.7721 41.832 29.0586C41.1029 29.3451 40.3672 29.4883 39.625 29.4883C38.5703 29.4883 37.737 29.2214 37.125 28.6875C36.526 28.1406 36.2266 27.2943 36.2266 26.1484C36.2266 25.5495 36.3112 24.9635 36.4805 24.3906C36.6497 23.8177 36.8516 23.2643 37.0859 22.7305C37.3203 22.1836 37.5677 21.6628 37.8281 21.168C38.0885 20.6602 38.3099 20.1784 38.4922 19.7227C38.5573 19.5534 38.668 19.293 38.8242 18.9414C38.9935 18.5898 39.1693 18.2318 39.3516 17.8672C39.5599 17.4375 39.7812 16.9818 40.0156 16.5ZM67.4766 19.8203C67.6589 19.7161 67.8281 19.6315 67.9844 19.5664C68.1406 19.5013 68.2904 19.4688 68.4336 19.4688C68.7201 19.4688 68.9349 19.5794 69.0781 19.8008C69.2214 20.0091 69.293 20.2695 69.293 20.582C69.293 20.9206 69.2018 21.2656 69.0195 21.6172C68.8503 21.9688 68.5898 22.2617 68.2383 22.4961C66.8451 23.5378 65.6016 24.4883 64.5078 25.3477C63.4141 26.207 62.3789 26.9492 61.4023 27.5742C60.4388 28.1862 59.4948 28.6615 58.5703 29C57.6458 29.3385 56.6562 29.5078 55.6016 29.5078C54.612 29.5078 53.8438 29.3255 53.2969 28.9609C52.763 28.5964 52.4961 28.0951 52.4961 27.457C52.4961 27.4049 52.4961 27.3594 52.4961 27.3203C52.4961 27.2682 52.5026 27.2096 52.5156 27.1445C52.5677 26.7539 52.7695 26.3047 53.1211 25.7969C53.4727 25.2891 53.8958 24.7617 54.3906 24.2148C54.8854 23.668 55.4128 23.1146 55.9727 22.5547C56.5326 21.9948 57.0469 21.4674 57.5156 20.9727C57.9974 20.4648 58.3945 20.0026 58.707 19.5859C59.0195 19.1693 59.1758 18.8307 59.1758 18.5703C59.1758 18.4141 59.1107 18.2904 58.9805 18.1992C58.8503 18.1081 58.6354 18.0625 58.3359 18.0625C57.8151 18.0625 57.2747 18.1797 56.7148 18.4141C56.168 18.6354 55.6211 18.9414 55.0742 19.332C54.5404 19.7096 54.013 20.1458 53.4922 20.6406C52.9844 21.1354 52.5026 21.6497 52.0469 22.1836C51.6042 22.7174 51.194 23.2578 50.8164 23.8047C50.4518 24.3385 50.1393 24.8333 49.8789 25.2891C49.8008 25.4323 49.6901 25.6341 49.5469 25.8945C49.4036 26.1549 49.2474 26.4479 49.0781 26.7734C48.9089 27.099 48.7266 27.4375 48.5312 27.7891C48.349 28.1276 48.1797 28.4531 48.0234 28.7656C47.8672 29.0651 47.724 29.332 47.5938 29.5664C47.4766 29.8138 47.3919 29.9831 47.3398 30.0742C47.2747 30.1914 47.1641 30.4128 47.0078 30.7383C46.8646 31.0638 46.6953 31.4414 46.5 31.8711C46.3047 32.3138 46.0964 32.776 45.875 33.2578C45.6667 33.7396 45.4648 34.1953 45.2695 34.625C45.0872 35.0547 44.9245 35.4323 44.7812 35.7578C44.638 36.0833 44.5469 36.3047 44.5078 36.4219C44.3776 36.7604 44.2279 37.0794 44.0586 37.3789C43.8763 37.6784 43.6745 37.9388 43.4531 38.1602C43.2188 38.3945 42.9583 38.5768 42.6719 38.707C42.3724 38.8503 42.0404 38.9219 41.6758 38.9219C41.207 38.9219 40.8229 38.8242 40.5234 38.6289C40.2109 38.4466 40.0547 38.0885 40.0547 37.5547C40.0547 37.2943 40.0938 37.0273 40.1719 36.7539C40.25 36.4805 40.3477 36.207 40.4648 35.9336C40.582 35.6732 40.7057 35.4128 40.8359 35.1523C40.9531 34.9049 41.0638 34.6641 41.168 34.4297C41.8711 33.1276 42.5872 31.819 43.3164 30.5039C44.0456 29.2018 44.7422 27.9128 45.4062 26.6367C46.0833 25.3477 46.7083 24.0846 47.2812 22.8477C47.8542 21.6107 48.3294 20.4258 48.707 19.293C48.8112 19.0586 48.9544 18.7266 49.1367 18.2969C49.319 17.8672 49.5273 17.444 49.7617 17.0273C49.9961 16.6107 50.2565 16.2526 50.543 15.9531C50.8424 15.6406 51.1615 15.4844 51.5 15.4844C52.0208 15.4844 52.3984 15.5885 52.6328 15.7969C52.8672 15.9922 52.9844 16.2852 52.9844 16.6758C52.9844 16.7539 52.9714 16.8776 52.9453 17.0469C52.9193 17.2161 52.8867 17.3984 52.8477 17.5938C52.8086 17.776 52.763 17.9518 52.7109 18.1211C52.6719 18.2904 52.6328 18.4141 52.5938 18.4922C53.0755 18.0495 53.5964 17.6133 54.1562 17.1836C54.7161 16.7409 55.2956 16.3438 55.8945 15.9922C56.4935 15.6406 57.1055 15.3542 57.7305 15.1328C58.3555 14.9115 58.9805 14.8008 59.6055 14.8008C60.0352 14.8008 60.4583 14.8529 60.875 14.957C61.3047 15.0612 61.6823 15.2174 62.0078 15.4258C62.3464 15.6211 62.6198 15.875 62.8281 16.1875C63.0365 16.487 63.1406 16.8385 63.1406 17.2422C63.1406 17.776 62.9779 18.349 62.6523 18.9609C62.3398 19.5599 61.9427 20.1654 61.4609 20.7773C60.9792 21.3893 60.4583 21.9883 59.8984 22.5742C59.3385 23.1471 58.8112 23.6745 58.3164 24.1562C57.8346 24.625 57.4245 25.0286 57.0859 25.3672C56.7604 25.6927 56.5911 25.9141 56.5781 26.0312C56.5781 26.1875 56.6367 26.3177 56.7539 26.4219C56.8711 26.513 57.0664 26.5586 57.3398 26.5586C57.5612 26.5586 57.8867 26.4544 58.3164 26.2461C58.7461 26.0378 59.3451 25.6797 60.1133 25.1719C60.8945 24.651 61.8776 23.9609 63.0625 23.1016C64.2604 22.2292 65.7318 21.1354 67.4766 19.8203ZM86.6172 19.8203C86.7995 19.7161 86.9688 19.6315 87.125 19.5664C87.2812 19.5013 87.431 19.4688 87.5742 19.4688C87.8607 19.4688 88.0755 19.5794 88.2188 19.8008C88.362 20.0091 88.4336 20.2695 88.4336 20.582C88.4336 20.9206 88.3424 21.2656 88.1602 21.6172C87.9909 21.9688 87.7305 22.2617 87.3789 22.4961C85.9857 23.5378 84.7422 24.4883 83.6484 25.3477C82.5547 26.207 81.5195 26.9492 80.543 27.5742C79.5794 28.1862 78.6354 28.6615 77.7109 29C76.7865 29.3385 75.7969 29.5078 74.7422 29.5078C73.7526 29.5078 72.9844 29.3255 72.4375 28.9609C71.9036 28.5964 71.6367 28.0951 71.6367 27.457C71.6367 27.4049 71.6367 27.3594 71.6367 27.3203C71.6367 27.2682 71.6432 27.2096 71.6562 27.1445C71.7083 26.7539 71.9102 26.3047 72.2617 25.7969C72.6133 25.2891 73.0365 24.7617 73.5312 24.2148C74.026 23.668 74.5534 23.1146 75.1133 22.5547C75.6732 21.9948 76.1875 21.4674 76.6562 20.9727C77.138 20.4648 77.5352 20.0026 77.8477 19.5859C78.1602 19.1693 78.3164 18.8307 78.3164 18.5703C78.3164 18.4141 78.2513 18.2904 78.1211 18.1992C77.9909 18.1081 77.776 18.0625 77.4766 18.0625C76.9557 18.0625 76.4154 18.1797 75.8555 18.4141C75.3086 18.6354 74.7617 18.9414 74.2148 19.332C73.681 19.7096 73.1536 20.1458 72.6328 20.6406C72.125 21.1354 71.6432 21.6497 71.1875 22.1836C70.7448 22.7174 70.3346 23.2578 69.957 23.8047C69.5924 24.3385 69.2799 24.8333 69.0195 25.2891C68.9414 25.4323 68.8307 25.6341 68.6875 25.8945C68.5443 26.1549 68.388 26.4479 68.2188 26.7734C68.0495 27.099 67.8672 27.4375 67.6719 27.7891C67.4896 28.1276 67.3203 28.4531 67.1641 28.7656C67.0078 29.0651 66.8646 29.332 66.7344 29.5664C66.6172 29.8138 66.5326 29.9831 66.4805 30.0742C66.4154 30.1914 66.3047 30.4128 66.1484 30.7383C66.0052 31.0638 65.8359 31.4414 65.6406 31.8711C65.4453 32.3138 65.237 32.776 65.0156 33.2578C64.8073 33.7396 64.6055 34.1953 64.4102 34.625C64.2279 35.0547 64.0651 35.4323 63.9219 35.7578C63.7786 36.0833 63.6875 36.3047 63.6484 36.4219C63.5182 36.7604 63.3685 37.0794 63.1992 37.3789C63.0169 37.6784 62.8151 37.9388 62.5938 38.1602C62.3594 38.3945 62.099 38.5768 61.8125 38.707C61.513 38.8503 61.181 38.9219 60.8164 38.9219C60.3477 38.9219 59.9635 38.8242 59.6641 38.6289C59.3516 38.4466 59.1953 38.0885 59.1953 37.5547C59.1953 37.2943 59.2344 37.0273 59.3125 36.7539C59.3906 36.4805 59.4883 36.207 59.6055 35.9336C59.7227 35.6732 59.8464 35.4128 59.9766 35.1523C60.0938 34.9049 60.2044 34.6641 60.3086 34.4297C61.0117 33.1276 61.7279 31.819 62.457 30.5039C63.1862 29.2018 63.8828 27.9128 64.5469 26.6367C65.224 25.3477 65.849 24.0846 66.4219 22.8477C66.9948 21.6107 67.4701 20.4258 67.8477 19.293C67.9518 19.0586 68.0951 18.7266 68.2773 18.2969C68.4596 17.8672 68.668 17.444 68.9023 17.0273C69.1367 16.6107 69.3971 16.2526 69.6836 15.9531C69.9831 15.6406 70.3021 15.4844 70.6406 15.4844C71.1615 15.4844 71.5391 15.5885 71.7734 15.7969C72.0078 15.9922 72.125 16.2852 72.125 16.6758C72.125 16.7539 72.112 16.8776 72.0859 17.0469C72.0599 17.2161 72.0273 17.3984 71.9883 17.5938C71.9492 17.776 71.9036 17.9518 71.8516 18.1211C71.8125 18.2904 71.7734 18.4141 71.7344 18.4922C72.2161 18.0495 72.737 17.6133 73.2969 17.1836C73.8568 16.7409 74.4362 16.3438 75.0352 15.9922C75.6341 15.6406 76.2461 15.3542 76.8711 15.1328C77.4961 14.9115 78.1211 14.8008 78.7461 14.8008C79.1758 14.8008 79.599 14.8529 80.0156 14.957C80.4453 15.0612 80.8229 15.2174 81.1484 15.4258C81.487 15.6211 81.7604 15.875 81.9688 16.1875C82.1771 16.487 82.2812 16.8385 82.2812 17.2422C82.2812 17.776 82.1185 18.349 81.793 18.9609C81.4805 19.5599 81.0833 20.1654 80.6016 20.7773C80.1198 21.3893 79.599 21.9883 79.0391 22.5742C78.4792 23.1471 77.9518 23.6745 77.457 24.1562C76.9753 24.625 76.5651 25.0286 76.2266 25.3672C75.901 25.6927 75.7318 25.9141 75.7188 26.0312C75.7188 26.1875 75.7773 26.3177 75.8945 26.4219C76.0117 26.513 76.207 26.5586 76.4805 26.5586C76.7018 26.5586 77.0273 26.4544 77.457 26.2461C77.8867 26.0378 78.4857 25.6797 79.2539 25.1719C80.0352 24.651 81.0182 23.9609 82.2031 23.1016C83.401 22.2292 84.8724 21.1354 86.6172 19.8203ZM92.5938 18.2383C91.9818 18.2383 91.3893 18.3945 90.8164 18.707C90.2565 19.0065 89.7552 19.4102 89.3125 19.918C88.8828 20.4128 88.5378 20.9792 88.2773 21.6172C88.0169 22.2422 87.8867 22.8867 87.8867 23.5508C87.8867 23.7982 87.9062 24.0716 87.9453 24.3711C87.9844 24.6576 88.0625 24.931 88.1797 25.1914C88.3099 25.4388 88.4922 25.6471 88.7266 25.8164C88.9609 25.9857 89.2734 26.0703 89.6641 26.0703C90.263 26.0703 90.8424 25.9141 91.4023 25.6016C91.9753 25.276 92.4831 24.8594 92.9258 24.3516C93.3685 23.8307 93.7201 23.2448 93.9805 22.5938C94.2409 21.9427 94.3711 21.2852 94.3711 20.6211C94.3711 20.3607 94.3516 20.0938 94.3125 19.8203C94.2865 19.5339 94.2083 19.2734 94.0781 19.0391C93.9609 18.8047 93.7852 18.6159 93.5508 18.4727C93.3164 18.3164 92.9974 18.2383 92.5938 18.2383ZM93.6094 14.8008C94.1042 14.8008 94.6315 14.8659 95.1914 14.9961C95.7643 15.1263 96.2917 15.3477 96.7734 15.6602C97.2552 15.9727 97.6523 16.3893 97.9648 16.9102C98.2904 17.418 98.4531 18.0495 98.4531 18.8047C98.4531 19.1953 98.401 19.6445 98.2969 20.1523C98.1927 20.6471 98.0365 21.168 97.8281 21.7148C97.9583 21.8711 98.1081 21.9818 98.2773 22.0469C98.4466 22.112 98.6289 22.1445 98.8242 22.1445C99.0977 22.1445 99.3971 22.0664 99.7227 21.9102C100.061 21.7539 100.406 21.5521 100.758 21.3047C101.109 21.0573 101.461 20.7773 101.812 20.4648C102.164 20.1523 102.496 19.8398 102.809 19.5273C103.121 19.2148 103.401 18.9219 103.648 18.6484C103.909 18.362 104.124 18.1211 104.293 17.9258C104.384 17.8346 104.495 17.7891 104.625 17.7891C104.807 17.7891 104.97 17.8867 105.113 18.082C105.257 18.2643 105.328 18.5247 105.328 18.8633C105.328 19.2018 105.224 19.5924 105.016 20.0352C104.82 20.4779 104.449 20.9401 103.902 21.4219C103.59 21.7604 103.232 22.151 102.828 22.5938C102.424 23.0365 101.995 23.4531 101.539 23.8438C101.083 24.2344 100.608 24.5664 100.113 24.8398C99.6185 25.1133 99.1237 25.25 98.6289 25.25C98.2904 25.25 97.9583 25.1979 97.6328 25.0938C97.3203 24.9896 97.0013 24.8203 96.6758 24.5859C96.207 25.3151 95.6732 25.9792 95.0742 26.5781C94.4753 27.1771 93.8047 27.6914 93.0625 28.1211C92.3333 28.5508 91.5391 28.8828 90.6797 29.1172C89.8333 29.3646 88.9284 29.4883 87.9648 29.4883C87.6003 29.4883 87.1771 29.4167 86.6953 29.2734C86.2135 29.1302 85.7513 28.8958 85.3086 28.5703C84.8789 28.2318 84.5143 27.7956 84.2148 27.2617C83.9154 26.7279 83.7656 26.0768 83.7656 25.3086C83.7656 24.7878 83.8503 24.1628 84.0195 23.4336C84.1888 22.7044 84.4427 21.9557 84.7812 21.1875C85.1328 20.4062 85.569 19.638 86.0898 18.8828C86.6237 18.1146 87.2552 17.431 87.9844 16.832C88.7135 16.2201 89.5469 15.7318 90.4844 15.3672C91.4219 14.9896 92.4635 14.8008 93.6094 14.8008Z" fill="#FAFAFA"/>
</svg>
