<svg width="60" height="64" viewBox="0 0 60 64" fill="none" xmlns="http://www.w3.org/2000/svg">
<circle cx="30" cy="34" r="30" fill="#FFD600"/>
<path d="M41.8574 30.834C41.6621 31.306 41.4749 31.6803 41.2959 31.957C41.1169 32.2337 40.9215 32.4535 40.71 32.6162C40.4984 32.7627 40.2542 32.8604 39.9775 32.9092C39.7171 32.958 39.4079 32.9824 39.0498 32.9824C37.5199 32.8522 36.2015 32.7546 35.0947 32.6895C34.0042 32.6243 33.0358 32.5918 32.1895 32.5918C31.3594 32.5918 30.627 32.6243 29.9922 32.6895C29.3737 32.7546 28.7633 32.8685 28.1611 33.0312C27.917 33.4219 27.5508 34.0404 27.0625 34.8867C26.5742 35.7331 26.029 36.7015 25.4268 37.792C24.8408 38.8662 24.2386 40.0137 23.6201 41.2344C23.0016 42.4551 22.432 43.627 21.9111 44.75C20.7881 47.1914 19.779 49.0143 18.8838 50.2188C18.0049 51.4232 17.2562 52.0254 16.6377 52.0254C15.889 52.0254 15.3438 51.887 15.002 51.6104C14.6764 51.3499 14.5137 50.9593 14.5137 50.4385C14.5137 49.82 14.7334 48.9574 15.1729 47.8506C15.6286 46.7275 16.2552 45.3685 17.0527 43.7734C17.3457 43.1875 17.6631 42.5609 18.0049 41.8936C18.363 41.2262 18.721 40.5589 19.0791 39.8916C19.4372 39.2243 19.7871 38.5732 20.1289 37.9385C20.4707 37.3037 20.7799 36.734 21.0566 36.2295C21.3333 35.7087 21.5612 35.2692 21.7402 34.9111C21.9355 34.5531 22.0576 34.3171 22.1064 34.2031C22.1553 34.0729 22.1878 33.9834 22.2041 33.9346C22.2367 33.8857 22.2529 33.8532 22.2529 33.8369C22.2692 33.8044 22.2773 33.7881 22.2773 33.7881C22.2773 33.7718 22.2855 33.7311 22.3018 33.666H21.8623C21.2438 33.666 20.7474 33.6172 20.373 33.5195C19.9987 33.4219 19.8115 33.2103 19.8115 32.8848C19.8115 32.7057 19.8848 32.4779 20.0312 32.2012C20.373 31.5664 20.7555 31.0863 21.1787 30.7607C21.6019 30.4189 22.0088 30.1748 22.3994 30.0283C22.8063 29.8818 23.1725 29.8086 23.498 29.8086C23.8398 29.7923 24.1003 29.7842 24.2793 29.7842C24.7188 28.889 25.1582 27.9938 25.5977 27.0986C26.0371 26.2035 26.4766 25.3083 26.916 24.4131C27.7461 22.7692 28.5843 21.3939 29.4307 20.2871C30.2933 19.1803 31.2292 18.2933 32.2383 17.626C33.2474 16.9587 34.3623 16.4867 35.583 16.21C36.8037 15.917 38.1953 15.7705 39.7578 15.7705C41.1901 15.7705 42.3294 15.8112 43.1758 15.8926C44.0384 15.974 44.6406 16.0553 44.9824 16.1367C45.6335 16.3158 46.0892 16.625 46.3496 17.0645C46.6263 17.4876 46.7646 17.9596 46.7646 18.4805C46.7646 18.8874 46.6914 19.2943 46.5449 19.7012C46.4147 20.1081 46.2275 20.4824 45.9834 20.8242C45.7555 21.1497 45.487 21.4183 45.1777 21.6299C44.8848 21.8415 44.5837 21.9473 44.2744 21.9473C44.0954 21.9473 43.9408 21.9147 43.8105 21.8496C43.4525 21.6868 43.127 21.5485 42.834 21.4346C42.5573 21.3044 42.2725 21.2067 41.9795 21.1416C41.6865 21.0602 41.3529 21.0033 40.9785 20.9707C40.6204 20.9382 40.1729 20.9219 39.6357 20.9219C39.0824 20.9219 38.4232 20.9382 37.6582 20.9707C36.9095 20.987 35.9899 21.0195 34.8994 21.0684C34.46 21.8333 34.0449 22.5495 33.6543 23.2168C33.2799 23.8678 32.9056 24.5189 32.5312 25.1699C32.1732 25.8047 31.7988 26.4557 31.4082 27.123C31.0339 27.7741 30.6188 28.4902 30.1631 29.2715C30.7653 29.0599 31.4163 28.8727 32.1162 28.71C32.8324 28.5309 33.5566 28.3844 34.2891 28.2705C35.0378 28.1566 35.7865 28.0671 36.5352 28.002C37.2839 27.9368 38 27.9043 38.6836 27.9043C39.9206 27.9043 40.8076 28.002 41.3447 28.1973C41.8981 28.3926 42.1748 28.7913 42.1748 29.3936C42.1748 29.5238 42.1667 29.7191 42.1504 29.9795C42.1341 30.2236 42.0365 30.5085 41.8574 30.834Z" fill="black"/>
</svg>
